<svg xmlns="http://www.w3.org/2000/svg" width="1599" height="518" viewBox="0 0 1599 518" version="1.1">
	<path d="M 0 258.525 L 0 517.050 16.152 516.775 L 32.304 516.500 90.615 266.500 C 122.686 129, 149.781 12.788, 150.827 8.250 L 152.729 0 76.364 0 L 0 0 0 258.525 M 1448.173 8.250 C 1449.219 12.787, 1476.312 129, 1508.381 266.500 L 1566.689 516.500 1582.844 516.775 L 1599 517.050 1599 258.525 L 1599 0 1522.636 0 L 1446.271 0 1448.173 8.250 M 890.500 16.545 C 886.100 17.262, 882.388 17.884, 882.250 17.925 C 882.112 17.966, 882 48.199, 882 85.108 L 882 152.217 884.250 151.692 C 885.487 151.404, 890.663 150.616, 895.750 149.942 L 905 148.716 905 122.808 C 905 102.026, 905.289 96.341, 906.463 94.072 C 908.931 89.299, 913.694 88.604, 917.545 92.455 L 920 94.909 920 121.063 L 920 147.217 922.250 146.684 C 923.487 146.391, 927.650 145.856, 931.500 145.495 C 935.350 145.135, 939.240 144.635, 940.144 144.386 C 941.635 143.975, 941.739 141.396, 941.259 116.716 C 940.756 90.837, 940.617 89.274, 938.420 84.893 C 933.684 75.443, 926.771 70, 919.507 70 C 917.541 70, 913.713 71.125, 911 72.500 C 908.287 73.875, 905.827 75, 905.533 75 C 905.240 75, 905 61.500, 905 45 L 905 15 901.750 15.120 C 899.962 15.185, 894.900 15.827, 890.500 16.545 M 1386 52.650 C 1362.028 58.256, 1322.325 67.342, 1320 67.753 C 1318.625 67.996, 1306.025 70.800, 1292 73.983 C 1277.975 77.167, 1253.225 82.737, 1237 86.361 C 1176.250 99.932, 1148.923 106.049, 1129 110.537 C 1117.725 113.076, 1103.325 116.244, 1097 117.575 C 1086.812 119.720, 1075.834 122.173, 1023.500 133.999 C 1016.350 135.614, 1003.525 138.492, 995 140.394 C 938.682 152.958, 921.602 156.787, 898.258 162.080 C 883.825 165.353, 868.750 168.676, 864.758 169.465 C 860.766 170.254, 852.550 172.053, 846.500 173.464 C 836.339 175.834, 827.709 177.763, 803.212 183.142 L 793.925 185.181 794.212 193.839 L 794.500 202.496 801.766 205.375 L 809.032 208.255 805.672 212.377 C 801.215 217.845, 799.990 220.296, 798.403 226.932 C 794.575 242.936, 799.590 260.246, 810.456 268.534 L 814.008 271.243 822.254 270.010 C 838.573 267.570, 854.145 264.046, 857.788 261.970 C 861.728 259.723, 867 253.610, 867 251.286 C 867 249.896, 856.883 244.682, 851.822 243.464 C 849.561 242.920, 848.908 243.277, 847.623 245.761 C 845.660 249.559, 839.690 254.789, 836.366 255.623 C 834.742 256.031, 832.035 255.556, 829.136 254.354 C 823.606 252.063, 820.241 246.829, 819.325 239.096 C 818.827 234.890, 819.168 233.196, 821.406 228.773 C 825.114 221.445, 829.468 218.598, 836.008 219.227 C 838.850 219.500, 841.884 220.490, 843.014 221.513 C 844.655 222.998, 845.405 223.111, 847.254 222.152 C 850.890 220.267, 856.695 216.653, 859.590 214.473 C 862.187 212.518, 862.228 212.341, 860.744 209.471 C 858.865 205.838, 856.719 203.892, 851.500 201.091 L 847.500 198.944 851 199.520 C 852.925 199.837, 859.113 201.500, 864.750 203.216 L 875 206.335 875 233.187 L 875 260.038 877.250 259.521 C 878.487 259.237, 883.550 258.325, 888.500 257.493 C 893.450 256.662, 904.813 254.587, 913.750 252.881 L 930 249.779 930 242.889 C 930 239.100, 929.862 236, 929.693 236 C 929.524 236, 923.632 237.125, 916.599 238.500 C 898.651 242.009, 899.851 242.319, 900.204 234.263 L 900.500 227.526 913.500 224.443 L 926.500 221.361 926.794 214.181 C 926.955 210.231, 926.879 207, 926.624 207 C 926.369 207, 920.957 208.125, 914.597 209.500 C 908.237 210.875, 902.332 212, 901.473 212 C 900.175 212, 899.962 210.779, 900.206 204.750 L 900.500 197.500 908.500 195.709 C 912.900 194.724, 919.313 193.212, 922.750 192.348 L 929 190.778 929 181.889 C 929 177, 929.363 173, 929.806 173 C 930.249 173, 934.187 174.303, 938.556 175.896 L 946.500 178.792 946.763 212.396 C 947.018 244.931, 947.088 246, 948.972 246 C 951.072 246, 965.068 244.176, 968.750 243.422 C 970.987 242.965, 971 242.852, 971 224.243 L 971 205.523 986.750 221.170 L 1002.500 236.816 1013 234.927 C 1018.775 233.887, 1024.513 232.795, 1025.750 232.499 L 1028 231.962 1028 193.481 C 1028 172.316, 1028.308 155, 1028.684 155 C 1029.061 155, 1031.986 155.734, 1035.184 156.632 L 1041 158.264 1041 166.132 C 1041 175.245, 1040.273 174.863, 1052.187 172.007 C 1056.759 170.911, 1060.838 170.011, 1061.250 170.007 C 1061.662 170.003, 1062 182.636, 1062 198.079 L 1062 226.159 1064.750 225.566 C 1068.542 224.748, 1084.330 222.003, 1085.250 222.001 C 1085.662 222.001, 1086 209.249, 1086 193.665 L 1086 165.331 1096 163.098 L 1106 160.865 1106 149.933 C 1106 142.672, 1106.368 139, 1107.096 139 C 1107.699 139, 1110.580 139.694, 1113.498 140.543 C 1119.927 142.411, 1120.401 143.629, 1119.482 155.920 C 1118.646 167.110, 1120.466 191.630, 1122.646 198.545 C 1124.596 204.732, 1129.066 210.694, 1132.825 212.124 C 1134.736 212.850, 1140.558 212.158, 1155.940 209.375 C 1179.083 205.188, 1180.028 204.730, 1184.543 195.501 C 1188.244 187.938, 1189.318 176.136, 1188.760 149.196 C 1188.411 132.329, 1188.584 126.017, 1189.389 126.343 C 1190 126.591, 1195.338 128.674, 1201.250 130.971 L 1212 135.148 1212 167.074 C 1212 196.840, 1212.118 198.995, 1213.750 198.929 C 1214.713 198.890, 1221.125 197.866, 1228 196.652 L 1240.500 194.446 1240.780 181.723 C 1240.983 172.497, 1241.395 169.013, 1242.280 169.049 C 1242.951 169.076, 1245.975 170.878, 1249 173.055 C 1252.025 175.232, 1258.291 179.565, 1262.924 182.684 L 1271.349 188.356 1284.424 186.071 C 1291.616 184.815, 1299.412 183.551, 1301.750 183.263 C 1304.088 182.975, 1306 182.421, 1306 182.030 C 1306 181.640, 1300.713 177.781, 1294.250 173.456 C 1287.787 169.130, 1281.065 164.525, 1279.310 163.222 L 1276.120 160.854 1280.938 156.062 C 1289.525 147.519, 1292.121 136.060, 1287.634 126.500 C 1285.508 121.972, 1277.606 113.519, 1272.455 110.264 C 1270.717 109.166, 1270.833 109.099, 1273.500 109.656 C 1275.150 110.001, 1279.710 111.544, 1283.634 113.085 C 1287.558 114.627, 1295.039 117.276, 1300.259 118.972 L 1309.748 122.058 1318.874 132.624 L 1328 143.191 1328 161.095 C 1328 174.778, 1328.295 178.989, 1329.250 178.953 C 1329.938 178.927, 1336.575 177.670, 1344 176.160 L 1357.500 173.415 1358 155.457 L 1358.500 137.500 1363.091 130.500 C 1368.397 122.409, 1376.905 109.253, 1389.444 89.750 C 1394.306 82.188, 1398.889 76, 1399.628 76 C 1401.400 76, 1426.500 86.757, 1439.296 93 C 1444.854 95.712, 1449.526 97.807, 1449.678 97.655 C 1450.127 97.206, 1442.941 70.558, 1442.188 69.879 C 1441.810 69.537, 1433.850 65.871, 1424.500 61.732 C 1401.045 51.349, 1397.837 49.986, 1397.123 50.097 C 1396.780 50.151, 1391.775 51.299, 1386 52.650 M 831.750 65.751 L 823 67.261 823 113.759 L 823 160.256 827.250 159.595 C 829.587 159.231, 834.313 158.453, 837.750 157.864 L 844 156.795 844 132.106 L 844 107.417 853.500 105 L 863 102.583 863 92.413 L 863 82.243 854.750 84.597 C 850.212 85.892, 845.938 86.962, 845.250 86.976 C 844.321 86.994, 844 84.046, 844 75.500 C 844 65.168, 843.822 64.012, 842.250 64.120 C 841.288 64.186, 836.563 64.920, 831.750 65.751 M 565.500 91.046 C 560 91.552, 550.775 92.894, 545 94.029 C 466.377 109.476, 391.471 189.116, 375.525 274.215 C 370.096 303.188, 372.469 337.878, 381.697 364.449 C 392.820 396.479, 412.301 421.294, 441.925 441.168 C 459.061 452.665, 487.405 465, 496.687 465 C 498.608 465, 527.837 462.081, 561.642 458.513 C 630.476 451.249, 625.024 452.377, 645.703 441.118 C 706.162 408.202, 747.310 354.093, 759.863 291 C 764.522 267.581, 765.570 239.724, 762.478 221.455 C 751.015 153.728, 696.171 103.753, 621 92.540 C 608.002 90.601, 578.864 89.817, 565.500 91.046 M 1318 95.597 C 1318 95.876, 1321.037 99.378, 1324.750 103.378 C 1328.463 107.379, 1333.843 113.205, 1336.706 116.326 C 1339.570 119.447, 1342.104 122, 1342.339 122 C 1343.047 122, 1351 109.440, 1351 108.322 C 1351 107.750, 1346.612 105.706, 1341.250 103.779 C 1335.888 101.852, 1328.463 99.109, 1324.750 97.682 C 1321.037 96.256, 1318 95.318, 1318 95.597 M 1246.250 130.802 L 1241 131.105 1241 140.552 C 1241 151.219, 1240.539 150.792, 1249.528 148.451 C 1257.051 146.491, 1260 143.843, 1260 139.048 C 1260 132.010, 1256.957 130.186, 1246.250 130.802 M 1144 160.846 C 1144 177.815, 1144.387 187.756, 1145.110 189.343 C 1147.116 193.744, 1153.643 195.339, 1157.783 192.439 C 1162.557 189.096, 1163 186.614, 1163 163.215 L 1163 141.331 1154.750 138.538 C 1150.213 137.001, 1145.938 135.529, 1145.250 135.265 C 1144.270 134.889, 1144 140.409, 1144 160.846 M 218.695 165.956 C 197.860 169.966, 180.243 176.194, 165.904 184.620 C 156.191 190.327, 140.438 205.295, 134.462 214.495 C 122.597 232.761, 116.872 258.086, 119.025 282.782 C 120.282 297.201, 120.908 300.006, 122.861 299.969 C 125.470 299.920, 202.035 286.299, 202.540 285.794 C 202.790 285.543, 203.866 281.935, 204.930 277.775 C 209 261.858, 217.938 249.617, 229.727 243.814 C 235.362 241.040, 237.614 240.522, 245.557 240.174 C 253.805 239.814, 255.412 240.042, 260.265 242.264 C 269.290 246.396, 274 254.737, 274 266.588 C 274 274.127, 271.584 281.179, 266.268 289.154 C 264.196 292.263, 231.450 328.207, 193.500 369.028 C 155.550 409.850, 123.133 444.937, 121.461 446.998 C 118.517 450.631, 118.322 451.529, 115.177 476.006 C 113.392 489.899, 112.115 501.448, 112.339 501.672 C 112.701 502.034, 320.481 482.826, 332.222 481.345 C 335.358 480.950, 337.104 480.204, 337.420 479.125 C 341.692 464.527, 354.046 416.713, 353.648 416.315 C 353.352 416.019, 330.386 418.340, 302.612 421.473 C 274.838 424.605, 251.368 427.018, 250.457 426.834 C 249.251 426.591, 260.921 410.461, 293.388 367.500 C 317.911 335.050, 339.511 305.575, 341.387 302 C 347.651 290.061, 350.188 280.101, 350.756 265.215 C 351.068 257.048, 350.795 249.027, 350.047 244.392 C 344.032 207.106, 315.764 178.825, 273 167.311 C 259.853 163.771, 233.467 163.113, 218.695 165.956 M 972.524 171.131 C 974.187 172.984, 978.462 177.684, 982.024 181.575 C 992.220 192.715, 1001.380 203.101, 1002.818 205.153 C 1003.544 206.187, 1004.556 206.774, 1005.068 206.458 C 1006.162 205.782, 1006.314 180.034, 1005.235 178.363 C 1004.512 177.244, 978.365 169.153, 972.500 168.233 L 969.500 167.762 972.524 171.131 M 558.597 170.607 C 512.291 178.969, 470.997 217.253, 458.337 263.558 C 456.005 272.087, 455.610 275.489, 455.559 287.500 C 455.492 303.287, 457.139 312.474, 462.280 325 C 473.468 352.260, 494.252 370.889, 521.500 378.079 C 531.676 380.765, 550.756 381.696, 562.142 380.063 C 594.833 375.375, 629.405 353.106, 648.586 324.383 C 668.843 294.051, 674.006 255.724, 661.931 225.325 C 652.338 201.179, 633.466 182.631, 610.227 174.512 C 594.930 169.167, 574.940 167.655, 558.597 170.607 M 1390.500 180.721 C 1388.850 180.953, 1371.300 184.001, 1351.500 187.496 C 1331.700 190.991, 1298.400 196.815, 1277.500 200.438 C 1256.600 204.062, 1235.900 207.672, 1231.500 208.461 C 1227.100 209.250, 1211.575 211.972, 1197 214.510 C 1164.994 220.082, 1108.009 230.060, 1068.500 237.008 C 1052.550 239.813, 1030.500 243.632, 1019.500 245.494 C 999.766 248.834, 988.365 250.839, 919.500 263.081 C 900.250 266.503, 882.025 269.637, 879 270.044 C 875.975 270.452, 859.550 273.267, 842.500 276.299 C 825.450 279.331, 807.675 282.429, 803 283.183 L 794.500 284.554 794.216 294.647 L 793.933 304.740 800.716 307.120 L 807.500 309.500 807.759 359.750 C 807.980 402.575, 808.230 410, 809.451 410 C 811.333 410, 844.420 406.195, 849.250 405.423 L 853 404.824 853 392.931 C 853 379.293, 851.513 380.951, 865.500 379.003 C 881.902 376.720, 913.596 371.985, 916.276 371.418 L 919.051 370.830 918.776 355.665 C 918.512 341.181, 918.410 340.509, 916.500 340.700 C 914.127 340.938, 885.536 345.306, 868.350 348.056 C 861.668 349.125, 855.468 350, 854.571 350 C 853.134 350, 852.975 348.445, 853.221 336.776 L 853.500 323.553 858 322.749 C 860.475 322.307, 867.675 321.111, 874 320.090 C 880.325 319.069, 894.163 316.734, 904.750 314.900 L 924 311.567 924 295.716 L 924 279.865 926.250 280.558 C 935.810 283.503, 962.588 292.326, 962.941 292.648 C 963.184 292.869, 961.121 295.401, 958.356 298.275 C 944.941 312.219, 937.080 328.905, 937.017 343.566 C 936.990 350.016, 938.977 359.027, 941.515 363.960 C 947.497 375.589, 967.345 390.013, 977.331 389.990 C 985.529 389.972, 1040.876 383.858, 1072 379.533 C 1081.625 378.195, 1098.275 375.928, 1109 374.494 C 1119.725 373.060, 1130.300 371.125, 1132.500 370.193 C 1137.816 367.943, 1148.768 356.939, 1153.174 349.421 C 1163.604 331.625, 1164.359 318.653, 1155.939 301.888 C 1145.933 281.964, 1117.999 263.598, 1089 257.877 L 1082.500 256.594 1087.876 255.377 C 1090.833 254.707, 1100.364 253.156, 1109.056 251.930 L 1124.860 249.702 1129.680 252.704 C 1132.331 254.355, 1140.350 258.974, 1147.500 262.969 C 1154.650 266.964, 1163.425 271.934, 1167 274.013 C 1170.575 276.093, 1182.050 282.636, 1192.500 288.553 C 1202.950 294.470, 1213.897 300.833, 1216.827 302.692 L 1222.154 306.073 1214.888 312.787 C 1203.008 323.764, 1185.410 340.580, 1170.664 355.046 L 1156.828 368.618 1160.664 368.277 C 1172.695 367.206, 1194.782 364.595, 1210.500 362.386 C 1227.854 359.948, 1228.626 359.741, 1232 356.632 C 1233.925 354.857, 1241.672 347.657, 1249.216 340.630 L 1262.932 327.854 1269.716 331.594 C 1273.447 333.651, 1282.575 338.691, 1290 342.793 L 1303.500 350.252 1312.500 349.242 C 1330.918 347.175, 1372.549 341.865, 1373.918 341.407 C 1375.177 340.987, 1369.165 336.650, 1359.297 330.859 C 1357.759 329.956, 1350.200 325.227, 1342.500 320.350 C 1334.800 315.473, 1322.338 307.692, 1314.806 303.059 L 1301.112 294.636 1303.851 291.568 C 1306.672 288.407, 1314.212 281.149, 1345.994 251 C 1356.140 241.375, 1371.122 227.058, 1379.287 219.185 C 1396.640 202.454, 1392.856 203.209, 1415 212.055 C 1422.975 215.241, 1437.825 221.072, 1448 225.013 C 1458.175 228.953, 1470.441 233.713, 1475.257 235.589 C 1480.073 237.465, 1484.188 239, 1484.401 239 C 1484.613 239, 1483.751 235.735, 1482.483 231.744 C 1481.216 227.753, 1479.613 221.747, 1478.921 218.396 L 1477.663 212.305 1459.150 204.902 C 1448.968 200.831, 1435.882 195.612, 1430.069 193.304 C 1424.256 190.997, 1414.550 187.065, 1408.500 184.567 C 1397.709 180.112, 1396.569 179.869, 1390.500 180.721 M 1205 235.249 C 1205 235.549, 1210.737 239.251, 1217.750 243.475 C 1233.862 253.181, 1238.074 255.766, 1250.876 263.811 C 1257.985 268.278, 1261.650 270.043, 1262.515 269.415 C 1264.887 267.697, 1278.486 255.702, 1285.249 249.363 C 1293.240 241.873, 1294.657 242.693, 1270 240.547 C 1260.375 239.709, 1245.300 238.337, 1236.500 237.498 C 1211.766 235.141, 1205 234.657, 1205 235.249 M 1035.500 295.417 C 1019.414 299.123, 1005.511 306.453, 997.050 315.687 C 991.274 321.990, 987 330.233, 987 335.070 C 987 338.177, 989.725 343.942, 992.230 346.132 C 995.647 349.121, 1007.728 354.738, 1014.460 356.468 C 1022.516 358.538, 1047.116 358.528, 1056 356.451 C 1082.961 350.146, 1102.945 333.650, 1102.987 317.663 C 1102.999 313.122, 1102.670 312.505, 1097.593 307.547 C 1087.949 298.132, 1079.537 295.458, 1056.899 294.611 C 1045.579 294.187, 1039.911 294.401, 1035.500 295.417 M 1389 358.071 C 1380.357 359.003, 1365.049 360.849, 1336 364.462 C 1303.484 368.506, 1291.175 369.962, 1281 370.969 C 1275.775 371.486, 1256.650 373.727, 1238.500 375.949 C 1220.350 378.171, 1199.425 380.682, 1192 381.528 C 1172.752 383.721, 1131.954 388.557, 1091 393.499 C 1079.725 394.859, 1066.450 396.419, 1061.500 396.966 C 1052.135 397.999, 1043.945 398.976, 1003 403.944 C 989.525 405.579, 973.775 407.435, 968 408.068 C 962.225 408.701, 942.875 410.974, 925 413.119 C 888.639 417.482, 862.934 420.501, 849.500 421.986 C 822.815 424.936, 805.260 427.356, 799.719 428.847 L 793.500 430.521 793.203 435.599 C 792.755 443.272, 793.807 443.762, 806.330 441.719 C 811.924 440.807, 824.375 439.123, 834 437.978 C 843.625 436.834, 860.500 434.731, 871.500 433.306 C 882.500 431.881, 898.925 430.366, 908 429.939 C 917.075 429.513, 926.975 428.697, 930 428.126 C 933.025 427.555, 942.025 426.402, 950 425.563 C 957.975 424.724, 970.350 423.390, 977.500 422.598 C 984.650 421.806, 995.675 420.665, 1002 420.062 C 1008.325 419.459, 1019.350 418.323, 1026.500 417.537 C 1033.650 416.751, 1045.800 415.417, 1053.500 414.573 C 1061.200 413.729, 1073.125 412.388, 1080 411.592 C 1086.875 410.797, 1097.675 409.643, 1104 409.028 C 1110.325 408.413, 1140.475 405.216, 1171 401.925 C 1201.525 398.633, 1245.400 393.929, 1268.500 391.472 C 1291.600 389.014, 1312.300 386.750, 1314.500 386.441 C 1316.700 386.132, 1329.075 384.801, 1342 383.485 C 1354.925 382.168, 1372.956 380.323, 1382.068 379.385 L 1398.636 377.679 1412.568 382.746 C 1420.231 385.533, 1437.075 391.727, 1450 396.511 C 1495.732 413.437, 1497.462 413.975, 1526.750 420.368 C 1530.188 421.118, 1533 421.596, 1533 421.429 C 1533 420.556, 1529.098 405.246, 1528.497 403.759 C 1528.110 402.802, 1526.152 401.586, 1524.147 401.057 C 1522.141 400.528, 1516.720 399.134, 1512.100 397.958 C 1501.171 395.177, 1495.186 393.232, 1480 387.523 C 1473.125 384.939, 1460.525 380.207, 1452 377.008 C 1443.475 373.809, 1428.837 368.281, 1419.471 364.724 C 1410.104 361.166, 1401.104 358.032, 1399.471 357.759 C 1397.837 357.486, 1393.125 357.626, 1389 358.071" stroke="none" fill="#000000" fill-rule="evenodd"/>
</svg>