<?xml version="1.0" encoding="UTF-8"?>
<!-- Generated by Pixelmator Pro 4.2 -->
<svg width="1000" height="1000" viewBox="-300 0 1450 1000" xmlns="http://www.w3.org/2000/svg">
    <path id="Path" fill="#07111e" fill-rule="evenodd" stroke="none" d="M 1000 500.007813 C 1000 223.85968 776.14032 0 499.996002 0 C 223.855682 0 0 223.85968 0 500.003998 C 0 776.140381 223.855682 1000 499.996002 1000 C 776.14032 1000 1000 776.140381 1000 500.007813 Z M 499.376801 637.383057 C 423.598419 637.383057 362.165527 575.950195 362.165527 500.171783 L 362.164063 295.429688 L 439.039063 295.429688 L 439.039063 381.6875 C 456.795654 369.651917 478.45575 362.992432 499.376801 362.96051 C 575.163208 362.96051 636.588074 424.393372 636.588074 500.171783 C 636.588074 575.950195 575.163208 637.383057 499.376801 637.383057 Z M 205.778961 637.383057 C 130.000565 637.383057 68.567688 575.950195 68.567688 500.171783 C 68.567688 424.393372 130.000565 362.96051 205.778961 362.96051 C 281.557373 362.96051 342.990234 424.393372 342.990234 500.171783 L 342.992188 635.0625 L 267.648438 635.0625 L 267.648438 612.054688 C 251.316315 627.851318 228.138168 637.347168 205.778961 637.383057 Z M 793.577881 637.383057 C 717.7995 637.383057 656.366638 575.950195 656.366638 500.171783 C 656.366638 424.393372 717.7995 362.96051 793.577881 362.96051 C 862.229431 363.040405 920.262695 413.842957 929.41095 481.895325 L 851.09375 481.898438 C 843.349792 457.502747 820.527161 439.833496 793.577881 439.833496 C 760.260803 439.845459 733.239624 466.854675 733.239624 500.183777 C 733.239624 533.500854 760.24884 560.522095 793.577881 560.522095 C 820.527161 560.522095 843.337769 542.852783 851.091797 518.460205 L 929.398438 518.460938 C 920.262695 586.488647 862.229431 637.303162 793.577881 637.383057 Z M 205.778961 560.510071 C 239.096054 560.510071 266.117249 533.500854 266.117249 500.15979 C 266.117249 466.842712 239.108032 439.821533 205.778961 439.821533 C 172.461868 439.821533 145.440674 466.83075 145.440674 500.15979 C 145.440674 533.488892 172.44989 560.510071 205.778961 560.510071 Z M 499.376801 560.522095 C 532.693909 560.522095 559.715088 533.516846 559.715088 500.183777 C 559.715088 466.854675 532.705872 439.833496 499.376801 439.833496 C 466.047729 439.833496 439.038513 466.842712 439.038513 500.183777 C 439.038513 533.500854 466.047729 560.522095 499.376801 560.522095 Z"/>
</svg>
