<?xml version="1.0" encoding="UTF-8" standalone="no"?>
<svg
   xmlns:dc="http://purl.org/dc/elements/1.1/"
   xmlns:cc="http://creativecommons.org/ns#"
   xmlns:rdf="http://www.w3.org/1999/02/22-rdf-syntax-ns#"
   xmlns:svg="http://www.w3.org/2000/svg"
   xmlns="http://www.w3.org/2000/svg"
   xmlns:xlink="http://www.w3.org/1999/xlink"
   xmlns:sodipodi="http://sodipodi.sourceforge.net/DTD/sodipodi-0.dtd"
   xmlns:inkscape="http://www.inkscape.org/namespaces/inkscape"
   version="1.2"
   id="Layer_1"
   x="0px"
   y="0px"
   viewBox="-200 0 420 200"
   overflow="visible"
   xml:space="preserve"
   sodipodi:docname="Investigation_Discovery_full_2020.svg"
   width="212.41489"
   height="200"
   inkscape:version="1.0.1 (3bc2e813f5, 2020-09-07)"><metadata
   id="metadata848"><rdf:RDF><cc:Work
       rdf:about=""><dc:format>image/svg+xml</dc:format><dc:type
         rdf:resource="http://purl.org/dc/dcmitype/StillImage" /><dc:title></dc:title></cc:Work></rdf:RDF></metadata><defs
   id="defs846"><linearGradient
     inkscape:collect="always"
     id="linearGradient898"><stop
       style="stop-color:#f26b22;stop-opacity:1"
       offset="0"
       id="stop894" /><stop
       id="stop902"
       offset="0.23663527"
       style="stop-color:#ee2724;stop-opacity:1" /><stop
       style="stop-color:#ec2623;stop-opacity:1"
       offset="0.76939183"
       id="stop904" /><stop
       style="stop-color:#e62354;stop-opacity:1"
       offset="1"
       id="stop896" /></linearGradient><linearGradient
     inkscape:collect="always"
     xlink:href="#linearGradient898"
     id="linearGradient900"
     x1="244.26758"
     y1="173.41211"
     x2="970.86047"
     y2="476.7041"
     gradientUnits="userSpaceOnUse"
     gradientTransform="matrix(0.27301334,0,0,0.27301334,354.83942,28.660185)" /></defs><sodipodi:namedview
   pagecolor="#ffffff"
   bordercolor="#666666"
   borderopacity="1"
   objecttolerance="10"
   gridtolerance="10"
   guidetolerance="10"
   inkscape:pageopacity="0"
   inkscape:pageshadow="2"
   inkscape:window-width="1366"
   inkscape:window-height="706"
   id="namedview844"
   showgrid="false"
   inkscape:zoom="0.5"
   inkscape:cx="558.02276"
   inkscape:cy="320.79599"
   inkscape:window-x="-8"
   inkscape:window-y="-8"
   inkscape:window-maximized="1"
   inkscape:current-layer="g841"
   inkscape:document-rotation="0" />
<g
   id="g841"
   transform="translate(-411.14,-76.004)">
	<path
   style="opacity:1;vector-effect:none;fill:url(#linearGradient900);fill-opacity:1;fill-rule:evenodd;stroke:none;stroke-width:5.61086;stroke-linecap:butt;stroke-linejoin:miter;stroke-miterlimit:4;stroke-dasharray:none;stroke-dashoffset:0;stroke-opacity:1"
   d="m 421.5277,76.004 v 78.3175 l 46.94124,10.67258 V 76.004 Z m 63.98217,0 v 60.13012 32.7344 l 100.58674,22.86967 c 22.36203,-8.08536 37.45828,-26.66457 37.45828,-55.60407 0,-40.164718 -29.25232,-60.13012 -65.98765,-60.13012 z m 46.88949,32.88957 h 19.38607 c 12.43531,0 22.49909,8.77688 22.49909,27.31093 0,15.24289 -7.25059,27.31147 -22.54814,27.31147 h -19.33702 z"
   id="rect832-0"
   inkscape:connector-curvature="0" />
	<g
   id="INVESTIGATION_DISCOVERY_1_"
   style="fill:#ec2623;fill-opacity:1"
   transform="matrix(0.27264312,0,0,0.27264312,299.04551,54.615881)">
		<path
   style="fill:#ec2623;fill-opacity:1;stroke-width:0.999997"
   d="m 1183.6194,621.777 v 74.9988 h -16.072 l -35.2489,-49.49787 v 49.49787 h -15.642 V 621.777 h 16.392 l 34.9269,49.71287 V 621.777 Z"
   id="path873" /><path
   id="path871"
   style="fill:#ec2623;fill-opacity:1;stroke-width:0.999997"
   d="m 1067.2647,620.38486 c -5.43,0 -10.5373,1.01673 -15.3223,3.05272 -4.786,2.035 -8.9444,4.80468 -12.4804,8.30467 -3.535,3.49999 -6.3214,7.60629 -8.3574,12.32028 -2.036,4.71499 -3.0547,9.78682 -3.0547,15.21481 0,5.42899 1.0187,10.49886 3.0547,15.21285 2.036,4.71399 4.8214,8.82324 8.3574,12.32223 3.535,3.50099 7.6934,6.26672 12.4804,8.30272 4.785,2.03599 9.8923,3.05272 15.3223,3.05272 5.4249,0 10.5333,-1.01673 15.3183,-3.05272 4.785,-2.036 8.9483,-4.80173 12.4843,-8.30272 3.535,-3.49799 6.3215,-7.60824 8.3555,-12.32223 2.036,-4.71399 3.0547,-9.78386 3.0547,-15.21285 0,-5.42799 -1.0187,-10.49982 -3.0547,-15.21481 -2.034,-4.71399 -4.8195,-8.82029 -8.3555,-12.32028 -3.536,-3.49999 -7.6993,-6.26967 -12.4843,-8.30467 -4.784,-2.03599 -9.8934,-3.05272 -15.3183,-3.05272 z m 0,15.64254 c 3.213,0 6.1943,0.60826 8.9452,1.82226 2.749,1.21499 5.1418,2.85673 7.1778,4.92772 2.036,2.072 3.6432,4.53757 4.8222,7.39256 1.177,2.858 1.7695,5.89241 1.7695,9.1074 0,3.21299 -0.5925,6.2504 -1.7695,9.1074 -1.18,2.85799 -2.7862,5.3196 -4.8222,7.3906 -2.036,2.07299 -4.4288,3.71668 -7.1778,4.92967 -2.7509,1.216 -5.7322,1.82227 -8.9452,1.82227 -3.215,0 -6.1963,-0.60627 -8.9473,-1.82227 -2.749,-1.21399 -5.1437,-2.85668 -7.1796,-4.92967 -2.036,-2.071 -3.6414,-4.53261 -4.8204,-7.3906 -1.177,-2.857 -1.7695,-5.89441 -1.7695,-9.1074 0,-3.21499 0.5925,-6.2494 1.7695,-9.1074 1.18,-2.85599 2.7844,-5.32056 4.8204,-7.39256 2.0359,-2.06999 4.4306,-3.71273 7.1796,-4.92772 2.751,-1.214 5.7323,-1.82226 8.9473,-1.82226 z" /><path
   style="fill:#ec2623;fill-opacity:1;stroke-width:0.999997"
   d="m 1017.8738,621.777 v 74.9988 h -16.178 V 621.777 Z"
   id="path867" /><path
   style="fill:#ec2623;fill-opacity:1;stroke-width:0.999997"
   d="m 936.125,621.777 h 55.71286 v 14.99996 H 972.12391 V 696.7748 H 955.94595 V 636.77696 H 936.125 Z"
   id="path865" /><path
   id="path863"
   style="fill:#ec2623;fill-opacity:1"
   d="m 488.88086,545.77344 -30.21289,74.99804 h 16.5 l 6.32031,-16.17773 h 28.60547 l 6.32031,16.17773 h 16.82227 l -30.10742,-74.99804 z m 6.85547,20.46289 9.53515,24.53515 h -18.85546 z"
   transform="translate(411.14,76.004)" /><path
   style="fill:#ec2623;fill-opacity:1"
   d="m 851.807,646.848 c -1.859,-3.642 -4.466,-6.428 -7.821,-8.357 -3.359,-1.928 -7.217,-2.893 -11.572,-2.893 -3.213,0 -6.197,0.608 -8.946,1.822 -2.751,1.214 -5.162,2.893 -7.232,5.035 -2.071,2.143 -3.697,4.66 -4.874,7.553 -1.179,2.893 -1.768,5.983 -1.768,9.268 0,3.286 0.589,6.374 1.768,9.267 1.177,2.893 2.803,5.41 4.874,7.554 2.071,2.143 4.501,3.84 7.287,5.089 2.784,1.25 5.785,1.875 8.998,1.875 5,0 9.286,-1.339 12.859,-4.018 3.57,-2.678 5.855,-6.16 6.855,-10.445 h -21.748 v -13.499 h 38.998 v 6 c 0,5.215 -0.931,10.089 -2.786,14.625 -1.859,4.536 -4.429,8.464 -7.714,11.784 -3.287,3.322 -7.198,5.93 -11.732,7.822 -4.538,1.891 -9.482,2.839 -14.84,2.839 -5.5,0 -10.624,-1.018 -15.374,-3.054 -4.752,-2.036 -8.876,-4.822 -12.375,-8.357 -3.501,-3.536 -6.269,-7.66 -8.303,-12.375 -2.036,-4.714 -3.054,-9.749 -3.054,-15.106 0,-5.358 1.033,-10.393 3.106,-15.108 2.071,-4.713 4.876,-8.839 8.412,-12.375 3.536,-3.536 7.695,-6.321 12.481,-8.356 4.785,-2.036 9.857,-3.054 15.213,-3.054 7.57,0 14.339,1.714 20.305,5.143 5.962,3.429 10.48,8.179 13.552,14.249 z"
   id="path859" /><path
   style="fill:#ec2623;fill-opacity:1"
   d="m 783.131,621.777 v 74.999 h -16.178 v -74.999 z"
   id="path857" /><path
   style="fill:#ec2623;fill-opacity:1"
   d="m 701.383,621.777 h 55.713 v 15 h -19.714 v 59.998 h -16.178 v -59.998 h -19.821 z"
   id="path855" /><path
   style="fill:#ec2623;fill-opacity:1"
   d="m 658.097,672.347 c 1.286,3.215 3.196,5.805 5.733,7.769 2.535,1.965 5.445,2.946 8.732,2.946 2.642,0 4.909,-0.642 6.803,-1.928 1.892,-1.286 2.84,-3.143 2.84,-5.572 0,-3.499 -2.609,-6.177 -7.821,-8.036 l -9,-3.214 c -5.502,-1.999 -9.857,-4.715 -13.072,-8.143 -3.213,-3.429 -4.822,-7.857 -4.822,-13.286 0,-3.428 0.606,-6.516 1.822,-9.267 1.214,-2.749 2.927,-5.106 5.142,-7.071 2.212,-1.964 4.804,-3.482 7.769,-4.554 2.962,-1.071 6.23,-1.608 9.802,-1.608 5.572,0 10.642,1.43 15.215,4.287 4.569,2.858 7.998,6.82 10.284,11.892 l -13.393,7.714 c -1.142,-2.499 -2.696,-4.624 -4.66,-6.375 -1.964,-1.749 -4.338,-2.624 -7.124,-2.624 -2.502,0 -4.519,0.607 -6.055,1.82 -1.535,1.216 -2.302,2.823 -2.302,4.822 0,1.787 0.643,3.252 1.927,4.393 1.286,1.143 3.071,2.143 5.358,3 l 9.75,3.749 c 6.071,2.287 10.552,5.162 13.447,8.625 2.893,3.465 4.338,7.732 4.338,12.803 0,3.786 -0.732,7.143 -2.197,10.072 -1.465,2.93 -3.411,5.393 -5.837,7.392 -2.43,2.001 -5.234,3.536 -8.412,4.608 -3.178,1.07 -6.518,1.607 -10.016,1.607 -3.145,0 -6.145,-0.412 -9,-1.232 -2.858,-0.821 -5.502,-1.999 -7.928,-3.536 -2.43,-1.536 -4.608,-3.446 -6.537,-5.733 -1.927,-2.284 -3.464,-4.928 -4.606,-7.928 z"
   id="path853" /><path
   style="fill:#ec2623;fill-opacity:1"
   d="m 594.028,621.777 h 44.141 v 14.571 h -28.071 v 15.215 h 25.608 v 14.142 h -25.608 v 16.499 h 28.285 v 14.572 h -44.354 v -74.999 z"
   id="path851" /><path
   style="fill:#ec2623;fill-opacity:1"
   d="m 545.387,696.776 -28.821,-74.999 h 17.251 l 18.535,50.463 18.537,-50.463 H 587.6 l -28.928,74.999 z"
   id="path849" /><path
   style="fill:#ec2623;fill-opacity:1"
   d="m 507.997,621.777 v 74.999 h -16.072 l -35.249,-49.498 v 49.498 h -15.642 v -74.999 h 16.392 l 34.927,49.713 v -49.713 z"
   id="path847" /><path
   style="fill:#ec2623;fill-opacity:1"
   d="m 427.319,621.777 v 74.999 H 411.14 v -74.999 z"
   id="path836" />
		<path
   fill="#ee2724"
   d="m 578.173,773.114 c 0,5.286 -1.001,10.214 -2.999,14.785 -2.001,4.571 -4.732,8.536 -8.196,11.893 -3.466,3.357 -7.518,5.999 -12.161,7.928 -4.643,1.929 -9.571,2.893 -14.785,2.893 H 514.64 v -74.999 h 25.392 c 5.214,0 10.143,0.965 14.785,2.894 4.643,1.928 8.695,4.571 12.161,7.928 3.464,3.358 6.195,7.322 8.196,11.893 1.998,4.57 2.999,9.499 2.999,14.785 z m -16.499,0 c 0,-3.071 -0.573,-5.981 -1.713,-8.732 -1.144,-2.749 -2.699,-5.125 -4.663,-7.126 -1.964,-1.999 -4.303,-3.588 -7.017,-4.767 -2.716,-1.179 -5.609,-1.768 -8.678,-1.768 h -8.894 v 44.785 h 8.894 c 3.069,0 5.962,-0.59 8.678,-1.768 2.714,-1.178 5.053,-2.767 7.017,-4.768 1.964,-1.999 3.518,-4.355 4.663,-7.071 1.14,-2.715 1.713,-5.642 1.713,-8.785 z m 42.854,-37.5 v 74.999 H 588.35 v -74.999 z m 22.714,50.57 c 1.286,3.215 3.196,5.805 5.733,7.769 2.535,1.965 5.445,2.946 8.732,2.946 2.642,0 4.909,-0.642 6.803,-1.928 1.892,-1.286 2.84,-3.143 2.84,-5.572 0,-3.499 -2.609,-6.177 -7.821,-8.036 l -9,-3.214 c -5.502,-1.999 -9.857,-4.715 -13.072,-8.143 -3.213,-3.429 -4.822,-7.857 -4.822,-13.286 0,-3.428 0.606,-6.516 1.822,-9.267 1.214,-2.749 2.927,-5.106 5.142,-7.071 2.212,-1.964 4.804,-3.482 7.769,-4.554 2.962,-1.071 6.23,-1.608 9.802,-1.608 5.572,0 10.642,1.43 15.215,4.287 4.569,2.858 7.998,6.82 10.284,11.892 l -13.393,7.714 c -1.142,-2.499 -2.696,-4.624 -4.66,-6.375 -1.964,-1.749 -4.338,-2.624 -7.124,-2.624 -2.502,0 -4.519,0.607 -6.055,1.82 -1.535,1.216 -2.302,2.823 -2.302,4.822 0,1.787 0.643,3.252 1.927,4.393 1.286,1.143 3.071,2.143 5.358,3 l 9.75,3.749 c 6.071,2.287 10.552,5.162 13.447,8.625 2.893,3.465 4.338,7.732 4.338,12.803 0,3.786 -0.732,7.143 -2.197,10.072 -1.465,2.93 -3.411,5.393 -5.837,7.392 -2.43,2.001 -5.234,3.536 -8.412,4.608 -3.178,1.07 -6.518,1.606 -10.016,1.606 -3.145,0 -6.145,-0.412 -9,-1.232 -2.858,-0.821 -5.502,-1.999 -7.928,-3.536 -2.43,-1.536 -4.608,-3.446 -6.537,-5.733 -1.927,-2.284 -3.464,-4.928 -4.606,-7.928 z m 46.283,-13.07 c 0,-5.5 1.001,-10.624 3.002,-15.375 1.999,-4.749 4.748,-8.855 8.248,-12.321 3.499,-3.464 7.607,-6.195 12.322,-8.196 4.715,-1.999 9.785,-3 15.213,-3 3.285,0 6.537,0.448 9.75,1.339 3.215,0.894 6.321,2.233 9.321,4.017 v 17.036 c -2.858,-2.144 -5.785,-3.785 -8.785,-4.928 -2.999,-1.142 -6.252,-1.714 -9.75,-1.714 -3.287,0 -6.304,0.589 -9.053,1.768 -2.751,1.179 -5.142,2.823 -7.178,4.928 -2.036,2.108 -3.627,4.572 -4.769,7.393 -1.142,2.822 -1.713,5.839 -1.713,9.054 0,3.213 0.551,6.213 1.661,8.999 1.105,2.786 2.679,5.215 4.713,7.286 2.036,2.073 4.429,3.714 7.18,4.929 2.749,1.215 5.803,1.821 9.159,1.821 3.429,0 6.644,-0.553 9.643,-1.661 2.999,-1.106 5.999,-2.695 9,-4.768 v 17.036 c -3.287,1.858 -6.574,3.198 -9.857,4.018 -3.287,0.82 -6.428,1.232 -9.43,1.232 -5.572,0 -10.714,-0.983 -15.428,-2.947 -4.713,-1.963 -8.804,-4.677 -12.268,-8.141 -3.464,-3.464 -6.16,-7.57 -8.089,-12.322 -1.926,-4.751 -2.892,-9.912 -2.892,-15.483 z m 145.391,0 c 0,5.429 -1.018,10.5 -3.054,15.214 -2.036,4.714 -4.822,8.823 -8.357,12.321 -3.536,3.501 -7.697,6.267 -12.481,8.303 -4.787,2.036 -9.894,3.054 -15.322,3.054 -5.43,0 -10.537,-1.018 -15.322,-3.054 -4.787,-2.036 -8.946,-4.802 -12.481,-8.303 -3.536,-3.499 -6.321,-7.607 -8.357,-12.321 -2.036,-4.714 -3.054,-9.785 -3.054,-15.214 0,-5.428 1.018,-10.5 3.054,-15.215 2.036,-4.714 4.822,-8.82 8.357,-12.32 3.536,-3.5 7.695,-6.269 12.481,-8.304 4.785,-2.036 9.892,-3.054 15.322,-3.054 5.428,0 10.535,1.018 15.322,3.054 4.785,2.035 8.946,4.804 12.481,8.304 3.536,3.5 6.321,7.606 8.357,12.32 2.036,4.715 3.054,9.787 3.054,15.215 z m -16.501,0 c 0,-3.215 -0.589,-6.249 -1.768,-9.107 -1.177,-2.856 -2.786,-5.321 -4.822,-7.393 -2.036,-2.071 -4.429,-3.713 -7.178,-4.928 -2.751,-1.214 -5.731,-1.821 -8.946,-1.821 -3.215,0 -6.197,0.607 -8.946,1.821 -2.751,1.215 -5.142,2.858 -7.178,4.928 -2.036,2.072 -3.645,4.537 -4.822,7.393 -1.179,2.858 -1.768,5.892 -1.768,9.107 0,3.213 0.589,6.25 1.768,9.107 1.177,2.858 2.786,5.321 4.822,7.392 2.036,2.073 4.427,3.715 7.178,4.929 2.749,1.216 5.731,1.822 8.946,1.822 3.215,0 6.195,-0.606 8.946,-1.822 2.749,-1.213 5.142,-2.856 7.178,-4.929 2.036,-2.071 3.645,-4.534 4.822,-7.392 1.18,-2.857 1.768,-5.894 1.768,-9.107 z m 44.893,37.499 -28.821,-74.999 h 17.251 l 18.535,50.463 18.535,-50.463 h 16.715 l -28.928,74.999 z m 50.785,-74.999 h 44.141 v 14.571 H 914.163 V 765.4 h 25.608 v 14.142 h -25.608 v 16.499 h 28.285 v 14.572 h -44.354 v -74.999 z m 73.175,74.999 h -15.963 v -74.999 h 24.963 c 4.072,0 7.784,0.535 11.143,1.608 3.357,1.071 6.23,2.624 8.625,4.66 2.391,2.036 4.266,4.536 5.624,7.501 1.356,2.964 2.036,6.374 2.036,10.232 0,5.356 -1.447,9.874 -4.34,13.553 -2.893,3.679 -6.589,6.375 -11.089,8.088 l 20.677,29.357 H 993.98 l -18.428,-27.428 h -4.285 v 27.428 z m 0,-40.714 h 9.107 c 3.215,0 5.875,-0.874 7.982,-2.624 2.106,-1.749 3.161,-4.195 3.161,-7.339 0,-3.214 -1.055,-5.66 -3.161,-7.339 -2.108,-1.676 -4.767,-2.518 -7.982,-2.518 h -9.107 z m 82.069,40.714 h -16.178 v -32.57 l -26.785,-42.428 h 18.428 l 16.608,27.428 16.608,-27.428 h 18.105 l -26.785,42.428 v 32.57 z"
   id="path838"
   style="fill:#ec2623;fill-opacity:1" />
	</g>
</g>
</svg>
