<?xml version="1.0" encoding="UTF-8" standalone="no"?>
<!-- Generator: Adobe Illustrator 23.0.3, SVG Export Plug-In . SVG Version: 6.00 Build 0)  -->

<svg
   version="1.1"
   id="svg8054"
   inkscape:version="1.4.2 (f4327f4, 2025-05-13)"
   sodipodi:docname="Marvel Studios 2025.svg"
   x="0px"
   y="0px"
   viewBox="0 0 1008.3008 224.0996"
   xml:space="preserve"
   width="1008.3008"
   height="224.09961"
   xmlns:inkscape="http://www.inkscape.org/namespaces/inkscape"
   xmlns:sodipodi="http://sodipodi.sourceforge.net/DTD/sodipodi-0.dtd"
   xmlns="http://www.w3.org/2000/svg"
   xmlns:svg="http://www.w3.org/2000/svg"><defs
   id="defs9">
	
	
</defs><sodipodi:namedview
   id="namedview9"
   pagecolor="#ffffff"
   bordercolor="#000000"
   borderopacity="0.25"
   inkscape:showpageshadow="2"
   inkscape:pageopacity="0.0"
   inkscape:pagecheckerboard="0"
   inkscape:deskcolor="#d1d1d1"
   inkscape:zoom="1.7613792"
   inkscape:cx="504.15039"
   inkscape:cy="112.12804"
   inkscape:window-width="1920"
   inkscape:window-height="1017"
   inkscape:window-x="-8"
   inkscape:window-y="-8"
   inkscape:window-maximized="1"
   inkscape:current-layer="svg8054" />
<style
   type="text/css"
   id="style1">
	.st0{fill:#E50B14;}
	.st1{fill:#FFFFFF;}
</style>
<g
   id="g7"
   transform="translate(8.3007841)">
	<rect
   x="525.5"
   y="0"
   width="474.5"
   height="8.3000002"
   id="rect1" />
	<rect
   x="525.5"
   y="215.60001"
   width="474.5"
   height="8.3000002"
   id="rect2" />
	<g
   id="g6">
		<path
   d="M 575.7,110.7 553,94.3 c -5.4,-4 -8.4,-7.5 -8.4,-15.7 V 58 c 0,-8.4 4,-12.4 12.4,-12.4 h 3.3 c 8.4,0 12.4,4 12.4,12.4 V 72.8 H 591 V 58.7 c 0,-19.9 -9.8,-30 -30,-30 h -4.7 c -20.4,0 -30.5,10.1 -30.5,30.5 v 19.7 c 0,13.4 3.5,21.8 15.7,30.5 l 22.9,16.6 c 5.4,4 8.2,7.5 8.2,15.7 v 24.6 c 0,8.4 -4,12.4 -12.4,12.4 h -3.7 c -8.4,0 -12.4,-4 -12.4,-12.4 v -23.5 h -18.3 v 22.8 c 0,19.9 9.8,30 30,30 h 5.2 c 20.4,0 30.5,-10.1 30.5,-30.5 v -23.9 c -0.1,-14.1 -3.9,-21.9 -15.8,-30.5 z"
   id="path2" />
		<polygon
   points="620.1,194.1 638.9,194.1 638.9,47.4 663.5,47.4 663.5,30.1 595.5,30.1 595.5,47.4 620.1,47.4 "
   id="polygon2" />
		<path
   d="m 718.6,165.9 c 0,8.4 -4,12.4 -12.4,12.4 h -4.5 c -8.4,0 -12.4,-4 -12.4,-12.4 V 30.1 H 670.6 V 165 c 0,20.4 10.1,30.5 30.5,30.5 h 5.9 c 20.4,0 30.5,-10.1 30.5,-30.5 V 30.1 h -18.7 v 135.8 z"
   id="path3" />
		<path
   d="m 780.2,30.1 h -30.9 v 164 h 30.9 c 24.6,0 36.3,-11.7 36.3,-36.3 V 66.4 c 0,-24.6 -11.7,-36.3 -36.3,-36.3 z M 797.8,158 c 0,12.6 -5.9,19 -18.5,19 H 768 V 47.2 h 11.2 c 12.6,0 18.5,6.3 18.5,19 V 158 Z"
   id="path4" />
		<rect
   x="827.79999"
   y="30.1"
   width="18.700001"
   height="164"
   id="rect4" />
		<path
   d="m 895.3,28.7 h -7 c -20.4,0 -30.5,10.1 -30.5,30.5 V 165 c 0,20.4 10.1,30.5 30.5,30.5 h 7 c 20.4,0 30.5,-10.1 30.5,-30.5 V 59.1 C 925.7,38.8 915.7,28.7 895.3,28.7 Z M 907,165.9 c 0,8.4 -4,12.4 -12.4,12.4 H 889 c -8.4,0 -12.4,-4 -12.4,-12.4 V 58.2 c 0,-8.4 4,-12.4 12.4,-12.4 h 5.6 c 8.4,0 12.4,4 12.4,12.4 z"
   id="path5" />
		<path
   d="M 983.9,110.7 961.2,94.3 c -5.4,-4 -8.4,-7.5 -8.4,-15.7 V 58 c 0,-8.4 4,-12.4 12.4,-12.4 h 3.3 c 8.4,0 12.4,4 12.4,12.4 v 14.8 h 18.3 V 58.7 c 0,-19.9 -9.8,-30 -30,-30 h -4.7 C 944.1,28.7 934,38.8 934,59.2 v 19.7 c 0,13.4 3.5,21.8 15.7,30.5 l 22.9,16.6 c 5.4,4 8.2,7.5 8.2,15.7 v 24.6 c 0,8.4 -4,12.4 -12.4,12.4 h -3.7 c -8.4,0 -12.4,-4 -12.4,-12.4 V 142.8 H 934 v 22.8 c 0,19.9 9.8,30 30,30 h 5.2 c 20.4,0 30.5,-10.1 30.5,-30.5 v -23.9 c -0.1,-14.1 -3.9,-21.9 -15.8,-30.5 z"
   id="path6" />
	</g>
</g>
<g
   id="g8"
   style="fill:#000000">
		<path
   class="st1"
   d="M 324.7,129.9 311.2,30 h -30 l 3.4,26.7 C 281.1,49.9 268.9,30 241.8,30 c -0.2,0 -30,0 -30,0 L 211.7,175.5 189.8,30.1 H 150.5 L 127.9,180.9 V 30.1 H 90.3 L 76.7,114.8 63.5,30.1 H 25.9 v 164 h 29.6 v -79 L 69,194 H 84.7 L 98,115 v 79 h 57.1 l 3.5,-25.2 h 23 L 185,194 h 56.1 v 0 0 0 0 -53.2 l 6.9,-1 14.2,54.3 v 0 h 28.9 0.1 v 0 h 0.1 v 0 l -18.7,-63.6 c 9.5,-7 20.1,-24.8 17.3,-41.8 v 0 c 0,0.2 17.6,105.5 17.6,105.5 L 342,194.1 365.6,45.5 V 194 h 55.9 V 164.5 H 395 v -37.6 h 26.5 V 97 H 395 V 60 h 26.5 V 30.1 h -83.2 z m -162.6,12.8 8.1,-70.1 8.4,70.1 z m 86.1,-32.4 c -2.3,1.1 -4.6,1.6 -7,1.6 V 59.2 c 0,0 0.1,0 0.1,0 2.3,0 19.6,0.7 19.6,26.1 0,13.3 -5.8,21.6 -12.7,25 z"
   id="path7"
   style="fill:#000000" />
		<polygon
   class="st1"
   points="481.2,164.5 456,164.5 456,30 426.7,30 426.7,194 481.2,194 "
   id="polygon7"
   style="fill:#000000" />
	</g>
<path
   id="rect9"
   style="fill:#000000;stroke-width:0;stroke-linecap:round;stroke-linejoin:round"
   d="m 0,0 v 223.90039 0.19922 H 505.70077 V 223.90039 0 Z M 8.30078,8.3007812 H 497.39999 V 215.59961 H 8.30078 Z"
   sodipodi:nodetypes="cccccccccccc" /></svg>
