<?xml version="1.0" encoding="utf-8"?>
<!-- Generator: Adobe Illustrator 27.9.3, SVG Export Plug-In . SVG Version: 9.03 Build 53313)  -->
<!-- Tweaked and shrunk manually by Obscure2020. -->
<svg version="1.1" xmlns="http://www.w3.org/2000/svg" viewBox="0 0 2751.1 387.3" xml:space="preserve">
<g fill="#DF1F26">
	<path id="letter_m" d="M174.5,348l17.8-92.5c2.3-12,14.4-55.8,14.4-55.8l-43.1,116h-35.1l1.6-116c0,0-4.9,43.9-7.2,55.8L105.1,348H47.7l58.7-304.6h57.8l7.9,85.3c1.9,21.1,2.6,36.3,0.8,47.4c2.6-11.2,9.1-26.3,19.1-47.4l40.8-85.3h57.8L231.9,348H174.5z"/>
	<path id="letter_i" d="M248.9,348l58.7-304.6h58.2L307.1,348H248.9z"/>
	<path id="letter_s" d="M435.8,348h-74.2c-23.5,0-31.8-10.8-27.2-34.7l12.8-66.6h58.2l-9.7,50.2h25.5l9.8-50.6l-60.9-68.6c-5.7-7.6-6.9-14-4.6-25.5L379.8,78c4.6-23.9,17.1-34.7,40.6-34.7h74.2c23.9,0,32.3,10.4,27.7,34.3L509.6,143H451l9.4-48.6h-25.5l-9.7,50.2l60.5,68.6c6.2,7.2,7.7,14,5.4,25.5l-14.4,74.6C472.2,337.2,459.3,348,435.8,348z"/>
	<use href="#letter_s" x="162.1"/>
	<use href="#letter_i" x="403.9"/>
	<path id="letter_o" d="M843.5,348h-76.6c-23.9,0-31.8-10.8-27.2-34.7L785.1,78c4.6-23.9,16.7-34.7,40.6-34.7h76.6c23.9,0,32.2,10.8,27.6,34.7l-45.4,235.2C879.8,337.2,867.4,348,843.5,348z M867.8,95.6h-27.9l-38.6,200.2h27.9L867.8,95.6z"/>
	<path d="M994.5,348l-16.6-137.2c0,0-1,25.9-3.7,39.9L955.5,348h-57.8l58.7-304.6h54.6l16.6,137.2c0,0,1-25.9,3.7-39.9l18.8-97.3h57.8L1049.2,348H994.5z"/>
	<path d="M1070.6,348l11.5-59.4h57l-11.5,59.4H1070.6z M1092.9,232.3l11.5-59.8h57l-11.5,59.8H1092.9z"/>
	<use href="#letter_i" x="969"/>
	<use href="#letter_m" x="1248.5"/>
	<path d="M1629.3,245.5h-49.8L1559.7,348h-58.2l58.7-304.6h108.1c23.9,0,32.2,10.8,27.6,34.7l-25.7,133.2C1665.6,235.1,1653.2,245.5,1629.3,245.5z M1633.9,95.6h-25.5l-18.9,98.1h25.5L1633.9,95.6z"/>
	<use href="#letter_o" x="928.8"/>
	<use href="#letter_s" x="1499.8"/>
	<use href="#letter_s" x="1660.8"/>
	<use href="#letter_i" x="1902.6"/>
	<path d="M2341.8,348h-109.7l58.7-304.6h108.5c23.9,0,31.8,10.8,27.2,34.7l-12.5,65c-4.2,21.5-10.8,29.1-27.9,39.1l-10.8,6.4l9.1,6.4c13.4,9.2,17.4,19.5,13.3,40.7l-15,77.8C2378.2,337.2,2365.8,348,2341.8,348z M2341.6,223.2l-9.6-8H2316l-15.7,81.3h27.1L2341.6,223.2z M2365.6,94.8h-26.3l-13.1,68.2h15.2l12.9-9.2L2365.6,94.8z"/>
	<path d="M2395.8,348l58.7-304.6h58.2l-47.9,248.4h53.4l-10.8,56.2H2395.8z"/>
	<path d="M2526.2,348l58.7-304.6h118.4L2692.8,98h-60.2l-12.7,65.8h50.6l-10.4,53.8h-50.6l-14.6,75.8h61l-10.5,54.6H2526.2z"/>
</g>
</svg>
