<?xml version="1.0" encoding="UTF-8"?>
<!-- Generated by Pixelmator Pro 4.2 -->
<svg width="2500" height="2500" viewBox="0 0 2500 2500" xmlns="http://www.w3.org/2000/svg">
    <path id="Path" fill="#ffffff" fill-rule="evenodd" stroke="none" d="M 292.169891 1425.766235 C 151.110733 1425.766235 36.756313 1311.541504 36.756313 1170.651001 C 36.756313 1029.760498 151.110733 915.522705 292.169891 915.522705 C 343.685822 915.522705 391.64801 930.762207 431.776459 956.974121 L 1127.591431 1425.766235 L 292.169891 1425.766235 Z M 362.764313 851.672607 C 244.596786 774.96936 211.005096 617.049561 287.747223 498.93396 C 364.489319 380.831299 522.499939 347.252441 640.65448 423.955566 C 682.229858 450.842773 715.032715 489.303589 735.022522 534.600708 L 1090.614502 1345.172119 L 362.764313 851.672607 Z M 2207.220703 1426.012695 C 2348.616943 1426.012695 2463.243652 1311.684204 2463.243652 1170.638062 C 2463.243652 1029.591797 2348.616943 915.263306 2207.220703 915.263306 C 2155.60083 915.263306 2107.534912 930.515869 2067.315674 956.75354 L 1369.892578 1426.025635 L 2207.220703 1426.025635 L 2207.220703 1426.012695 Z M 2136.63916 851.659668 C 2255.065918 774.891602 2288.735352 616.803101 2211.824707 498.58374 C 2134.914063 380.364258 1976.566162 346.759521 1858.139282 423.540527 C 1816.473999 450.436768 1783.592651 488.940308 1763.550781 534.302368 L 1407.154663 1345.639038 L 2136.63916 851.659668 Z M 1351.190063 371.661621 C 1332.95459 385.785645 1282.969116 393.463867 1293.811768 482.46228 L 1401.772217 1237.523071 L 1761.838745 414.461914 C 1819.39856 285.568359 1761.255127 134.561279 1632.011475 77.183105 C 1502.741821 19.791748 1351.280884 77.753662 1293.734009 206.647217 C 1275.073364 248.270752 1267.97644 294.154541 1273.189941 339.470703 L 1341.047729 339.354004 C 1379.503052 341.260498 1399.748901 351.480713 1351.190063 371.661621 Z M 737.370056 414.669434 C 679.939941 285.892578 737.953674 135.015137 866.938049 77.688965 C 995.935303 20.362549 1147.072021 78.272461 1204.502075 207.049316 C 1224.761841 252.27124 1231.335693 302.435791 1223.411987 351.35083 L 1096.684448 1237.004272 L 737.370056 414.669434 Z M 2300.784424 2411.027344 C 2259.423828 2427.862061 2197.934326 2444.91748 2140.945068 2444.91748 C 1880.460327 2444.91748 1669.27356 2244.936523 1669.27356 1998.264648 C 1669.27356 1751.57959 1880.460327 1551.611938 2140.945068 1551.611938 C 2197.000244 1551.611938 2258.477051 1565.269043 2300.784424 1584.671875 L 2300.784424 1755.431885 C 2253.330322 1724.206787 2197.750732 1707.605835 2140.945068 1707.690186 C 1980.145874 1707.690186 1849.760864 1837.776855 1849.760864 1998.251709 C 1849.760864 2158.713623 1980.145874 2288.800293 2140.945068 2288.800293 C 2199.685059 2288.800293 2255.040039 2271.446777 2300.784424 2241.577393 L 2300.784424 2411.027344 Z M 733.595825 1580.793945 L 906.755188 1580.793945 L 906.755188 2434.217529 L 373.684875 1947.384277 L 373.684875 2415.541016 L 200.525543 2415.541016 L 200.525543 1562.337891 L 733.595825 2049.170898 L 733.595825 1580.793945 Z M 1487.009521 1969.458862 C 1539.874146 1930.290161 1585.903931 1892.911133 1585.475952 1794.328125 C 1584.892212 1664.578613 1479.915039 1579.989746 1349.711548 1579.989746 L 1006.103516 1579.989746 L 1006.103516 2416.358154 L 1391.513184 2416.358154 C 1528.019897 2416.358154 1631.881714 2312.807373 1631.881714 2176.728516 C 1631.881714 2040.675781 1519.407959 1981.287109 1487.009521 1969.458862 Z M 1180.196777 1706.432129 L 1308.908691 1706.444946 C 1369.16626 1706.444946 1418.010376 1755.133423 1418.010376 1815.196289 C 1418.010376 1875.246338 1369.16626 1923.947998 1308.908691 1923.947998 L 1180.196777 1923.947998 L 1180.196777 1706.432129 Z M 1336.897461 2290.810547 L 1180.222656 2290.810547 L 1180.222656 2048.898682 L 1336.9104 2048.185303 C 1404.093872 2048.185303 1458.553833 2102.502686 1458.553833 2169.504395 C 1458.553833 2236.506348 1404.080811 2290.810547 1336.897461 2290.810547 Z"/>
</svg>
