<?xml version="1.0" encoding="UTF-8" standalone="no"?>
<svg
   xmlns:dc="http://purl.org/dc/elements/1.1/"
   xmlns:cc="http://creativecommons.org/ns#"
   xmlns:rdf="http://www.w3.org/1999/02/22-rdf-syntax-ns#"
   xmlns:svg="http://www.w3.org/2000/svg"
   xmlns="http://www.w3.org/2000/svg"
   xmlns:sodipodi="http://sodipodi.sourceforge.net/DTD/sodipodi-0.dtd"
   xmlns:inkscape="http://www.inkscape.org/namespaces/inkscape"
   version="1.0"
   width="100"
   height="100"
   viewBox="-25 0 110 80"
   preserveAspectRatio="xMidYMid meet"
   id="svg2"
   inkscape:version="0.48.4 r9939"
   sodipodi:docname="jjjjjjjjjj.svg">
  <title
     id="title2999">The WB logo</title>
  <defs
     id="defs22" />
  <sodipodi:namedview
     pagecolor="#ffffff"
     bordercolor="#666666"
     borderopacity="1"
     objecttolerance="10"
     gridtolerance="10"
     guidetolerance="10"
     inkscape:pageopacity="1"
     inkscape:pageshadow="2"
     inkscape:window-width="1600"
     inkscape:window-height="844"
     id="namedview20"
     showgrid="false"
     inkscape:showpageshadow="false"
     inkscape:zoom="1"
     inkscape:cx="81.176068"
     inkscape:cy="48.426339"
     inkscape:window-x="-4"
     inkscape:window-y="-4"
     inkscape:window-maximized="1"
     inkscape:current-layer="svg2" />
  <metadata
     id="metadata4">
Created by potrace 1.13, written by Peter Selinger 2001-2015
<rdf:RDF>
  <cc:Work
     rdf:about="">
    <dc:format>image/svg+xml</dc:format>
    <dc:type
       rdf:resource="http://purl.org/dc/dcmitype/StillImage" />
    <dc:title>The WB logo</dc:title>
  </cc:Work>
</rdf:RDF>
</metadata>
  <g
     transform="matrix(0.00764375,0,0,-0.00761083,-24.763579,89.192147)"
     id="g6"
     style="fill:#000000;stroke:none">
    <path
       d="m 8740,11536 c 0,-31 1947,-9183 1959,-9213 11,-24 504,-283 540,-283 25,0 26,-9 -20,202 -17,77 -28,142 -26,145 3,3 103,-61 221,-142 119,-80 223,-145 231,-143 19,4 215,241 379,458 793,1047 1325,2142 1511,3109 58,302 69,430 70,786 0,452 -23,616 -119,843 -105,251 -357,505 -595,603 -44,18 -81,36 -81,40 0,3 27,41 60,82 259,328 473,732 553,1042 72,279 58,565 -39,814 -120,303 -461,663 -875,922 -144,90 -444,239 -619,308 -419,166 -933,305 -1449,392 -204,34 -191,33 -191,15 0,-8 15,-17 38,-20 159,-29 492,-114 707,-181 77,-24 194,-60 260,-80 421,-130 868,-360 1142,-588 174,-145 290,-289 379,-472 97,-198 131,-367 121,-595 -20,-451 -216,-872 -597,-1281 -55,-59 -100,-112 -100,-117 0,-6 24,-17 53,-26 69,-20 219,-95 282,-140 136,-98 259,-251 345,-431 70,-145 110,-267 152,-468 32,-149 32,-158 32,-412 0,-343 -32,-582 -129,-959 -166,-649 -489,-1367 -944,-2096 -187,-300 -439,-659 -681,-975 -124,-161 -150,-190 -150,-167 0,12 -1232,5841 -1586,7507 -166,778 -261,1206 -271,1218 -23,25 -527,327 -547,327 -10,0 -16,-9 -16,-24 z"
       id="path10"
       inkscape:connector-curvature="0" />
    <path
       d="m 7160,10794 c -135,-29 -618,-132 -1075,-229 -456,-97 -924,-197 -1040,-221 -115,-25 -262,-56 -325,-69 -63,-13 -297,-63 -520,-110 -223,-47 -515,-109 -648,-137 l -244,-52 4,-40 c 5,-56 1449,-6839 1458,-6849 4,-5 196,32 426,81 324,70 422,87 431,78 7,-6 16,-32 19,-57 l 6,-46 -63,-12 c -163,-32 -199,-43 -199,-60 0,-9 20,-108 45,-221 37,-174 42,-207 30,-216 -18,-13 -229,-58 -247,-52 -8,3 -30,85 -59,219 -43,205 -46,214 -70,217 -13,1 -82,-10 -154,-26 -95,-21 -131,-33 -133,-44 -2,-9 69,-355 157,-770 89,-414 161,-757 161,-761 0,-4 9,-7 21,-7 17,0 1330,277 3764,795 270,57 693,147 940,200 248,52 483,102 523,111 40,9 72,21 72,28 0,6 -69,73 -152,148 -185,165 -522,505 -676,682 -533,610 -999,1319 -1323,2008 -35,76 -69,138 -76,138 -17,0 -54,-121 -134,-438 -69,-277 -105,-376 -155,-425 -32,-32 -52,-34 -105,-6 -66,33 -123,93 -243,253 -416,557 -763,1147 -1066,1811 -326,715 -592,1520 -731,2211 l -33,161 274,329 c 150,181 275,331 277,333 8,11 17,-21 62,-225 194,-877 445,-1678 734,-2339 165,-380 451,-885 501,-885 8,0 39,61 76,148 106,249 102,199 27,407 -201,556 -416,1345 -632,2320 -95,427 -236,1138 -227,1146 4,4 140,118 302,254 162,135 296,253 298,261 5,20 -1,19 -278,-42 z M 8227,3798 c 14,-18 24,-76 14,-83 -5,-2 -102,-25 -216,-50 -115,-24 -210,-47 -213,-49 -6,-7 7,-108 16,-123 6,-9 55,-2 201,29 108,23 196,37 201,32 4,-5 11,-27 14,-49 l 7,-40 -193,-41 -193,-41 2,-53 c 2,-30 7,-58 13,-64 7,-7 61,0 173,23 232,49 266,55 273,48 12,-12 23,-82 13,-92 -16,-16 -692,-156 -703,-145 -10,10 -128,551 -122,557 3,3 675,150 697,152 4,1 11,-5 16,-11 z M 7016,3538 c 14,-22 121,-543 114,-551 -12,-14 -251,-60 -261,-50 -5,5 -18,52 -30,104 -11,51 -24,98 -29,103 -5,5 -82,-7 -177,-28 -93,-20 -172,-36 -176,-36 -11,0 -7,-60 8,-130 25,-112 32,-103 -112,-134 -71,-15 -130,-23 -135,-18 -13,13 -126,545 -118,555 12,14 250,61 260,51 5,-5 18,-52 30,-104 12,-52 23,-96 25,-98 2,-2 76,13 166,32 89,20 170,36 181,36 23,0 23,29 -1,138 -21,97 -33,85 112,117 122,27 134,29 143,13 z"
       id="path12"
       inkscape:connector-curvature="0" />
    <path
       d="m 7470,10806 c 0,-66 216,-1030 350,-1566 308,-1223 732,-2523 1082,-3318 57,-130 75,-160 127,-214 28,-31 42,-38 72,-38 47,0 69,21 69,67 0,20 -221,1074 -491,2342 -357,1680 -495,2310 -507,2322 -31,29 -669,419 -686,419 -9,0 -16,-6 -16,-14 z"
       id="path14"
       inkscape:connector-curvature="0" />
    <path
       d="m 10250,10608 c 0,-7 120,-579 267,-1272 173,-813 272,-1260 281,-1263 15,-6 140,75 287,185 446,334 753,678 878,982 54,132 70,221 65,358 -6,132 -17,171 -84,272 -58,89 -212,236 -326,311 -292,192 -701,331 -1243,424 -109,18 -125,19 -125,3 z"
       id="path16"
       inkscape:connector-curvature="0" />
    <path
       d="m 11633,7391 c -140,-35 -329,-141 -507,-286 -77,-63 -85,-73 -86,-105 0,-32 516,-2479 525,-2489 16,-15 48,34 134,207 352,713 531,1359 531,1916 0,237 -31,408 -97,543 -47,97 -149,195 -224,218 -68,20 -186,18 -276,-4 z"
       id="path18"
       inkscape:connector-curvature="0" />
  </g>
</svg>
