<?xml version="1.0" encoding="UTF-8"?>
<!-- Generated by Pixelmator Pro 4.2 -->
<svg width="1000" height="345" viewBox="0 0 1000 345" xmlns="http://www.w3.org/2000/svg">
    <path id="path4360" fill="#ffffff" stroke="none" d="M 962.59375 292.828125 L 999.5 -0.015625 L 388.960938 43.757813 L 393.75 3.882813 L 38.382813 30.21875 L 0.5 315.125 L 346.640625 290.359375 L 233.109375 344.5 Z M 824.101563 50.992188 L 874.546875 47.5625 C 874.548401 47.565308 889.192627 46.548706 893.46582 46.532715 C 932.844055 46.532715 942.989441 61.991577 942.989441 86.213135 C 942.989441 93.852173 940.484741 110.381714 940.484741 110.381714 L 929.5625 190.382813 C 924.717041 227.651733 903.763611 247.794434 867.561584 251.328491 L 795.734375 256.429688 Z M 204.007813 58.109375 L 251.414063 54.828125 L 255.4375 197.421875 L 299.929688 51.3125 L 347.492188 47.90625 L 274.9375 256.289063 L 219.078125 260.132813 Z M 683.65625 61.023438 L 732.734375 57.8125 L 753.476563 170.578125 L 764.960938 55.164063 L 809.867188 52.21875 L 781.695313 257.320313 L 732.929688 260.867188 L 711.945313 147.929688 L 700.296875 263.257813 L 655.296875 266.195313 Z M 103.0625 106.15625 L 65.765625 108.695313 L 71.429688 67.484375 L 193.859375 58.882813 L 188.375 100.125 L 150.171875 102.640625 L 127.421875 266.882813 L 79.867188 269.976563 Z M 573.453125 68.898438 L 630.734375 64.96875 L 645.671875 267.148438 L 597.773438 270.3125 L 596.875 230.984375 L 559.898438 233.445313 L 548.757813 274.109375 L 501.054688 277.320313 Z M 414.101563 80.101563 L 461.484375 76.859375 L 438.71875 240.882813 L 496.09375 236.945313 L 490.804688 278 L 385.703125 285.4375 Z M 848.336487 215.844604 C 870.958008 215.844604 880.113159 208.897583 883.2052 186.336914 L 892.367188 118.335938 C 892.367249 118.335327 894.410583 104.754883 894.410583 99.813354 C 894.410583 89.088135 890.659058 84.587158 876.130371 84.587158 L 866.4375 84.765625 L 848.335938 215.84375 Z M 597.140625 195.171875 L 596.804688 103.265625 L 570.09375 196.859375 Z"/>
</svg>
